<?xml version="1.0" encoding="utf-8"?>
<!-- Generator: Adobe Illustrator 21.1.0, SVG Export Plug-In . SVG Version: 6.00 Build 0)  -->
<svg version="1.1" id="Layer_35" xmlns="http://www.w3.org/2000/svg" xmlns:xlink="http://www.w3.org/1999/xlink" x="0px" y="0px"
	 viewBox="0 0 512 512" style="enable-background:new 0 0 512 512;" xml:space="preserve">
<style type="text/css">
	.st0{fill:#625EA7;}
	.st1{fill:#222026;}
</style>
<circle class="st0" cx="256" cy="256" r="144"/>
<path class="st1" d="M442.4,108.1C455.5,97.8,464,81.9,464,64c0-30.9-25.1-56-56-56s-56,25.1-56,56c0,18,8.5,33.9,21.7,44.2
	c-4.8,1.5-9.5,3.5-14,5.8c-29.1-21.3-65-34-103.7-34s-74.6,12.6-103.8,34c-4.5-2.3-9.1-4.3-14-5.8C151.5,97.9,160,82,160,64
	c0-30.9-25.1-56-56-56S48,33.1,48,64c0,17.9,8.5,33.8,21.6,44.1C33.9,119.3,8,152.7,8,192v80c0,22.1,17.9,40,40,40v160
	c0,17.6,14.4,32,32,32c9.6,0,18.1-4.3,24-11.1c5.9,6.7,14.4,11.1,24,11.1c17.6,0,32-14.4,32-32v-68.6c27.6,18.1,60.6,28.6,96,28.6
	s68.4-10.5,96-28.6V472c0,17.6,14.4,32,32,32c9.6,0,18.1-4.3,24-11.1c5.9,6.7,14.4,11.1,24,11.1c17.6,0,32-14.4,32-32V312
	c22.1,0,40-17.9,40-40v-80C504,152.7,478.1,119.3,442.4,108.1z M368,64c0-22.1,17.9-40,40-40s40,17.9,40,40s-17.9,40-40,40
	S368,86.1,368,64z M394.4,336h-56.6c7.8-20.3,13.2-44.2,14.1-72h63.8C414.3,290.1,406.8,314.6,394.4,336z M228,98.6
	c-14.6,12.8-32.8,32.8-46.8,61.4h-52.9C152.2,128.3,187.4,105.8,228,98.6z M256,414.7c-10-6.4-36.9-26-56.8-62.7h113.5
	C292.9,388.6,266,408.3,256,414.7L256,414.7z M191.5,336c-8.4-19.8-14.4-43.7-15.3-72h159.6c-1,28.3-6.9,52.2-15.3,72H191.5z
	 M176.2,248c1-28.3,6.9-52.2,15.3-72h129c8.4,19.8,14.4,43.7,15.3,72H176.2z M199.2,160c19.9-36.6,46.8-56.3,56.8-62.7
	c10,6.4,36.9,26,56.8,62.7H199.2z M117.6,176h56.6c-7.8,20.3-13.2,44.2-14.1,72H96.4C97.7,221.9,105.2,197.4,117.6,176z M96.4,264
	h63.8c0.9,27.8,6.3,51.7,14.1,72h-56.6C105.2,314.6,97.7,290.1,96.4,264z M181.2,352c14,28.6,32.3,48.6,46.8,61.4
	c-40.6-7.2-75.9-29.7-99.7-61.4H181.2z M330.8,352h52.9c-23.9,31.7-59.1,54.2-99.7,61.4C298.5,400.6,316.8,380.6,330.8,352z
	 M351.8,248c-0.9-27.8-6.3-51.7-14.1-72h56.6c12.4,21.4,19.9,45.9,21.2,72H351.8z M330.8,160c-14-28.6-32.3-48.6-46.8-61.4
	c40.6,7.2,75.9,29.7,99.7,61.4H330.8z M64,64c0-22.1,17.9-40,40-40s40,17.9,40,40s-17.9,40-40,40S64,86.1,64,64z M80,488
	c-8.8,0-16-7.2-16-16V176H48v120c-13.2,0-24-10.8-24-24v-80c0-39.7,32.3-72,72-72h16c9.1,0,18.1,1.8,26.5,5.1
	C102.6,157.4,80,204.1,80,256c0,26.1,5.8,50.9,16,73.2V472C96,480.8,88.8,488,80,488z M144,472c0,8.8-7.2,16-16,16s-16-7.2-16-16
	V357c9.1,12.9,19.8,24.6,32,34.7V472z M384,488c-8.8,0-16-7.2-16-16v-80.3c12.2-10.1,22.9-21.7,32-34.7v115
	C400,480.8,392.8,488,384,488z M488,272c0,13.2-10.8,24-24,24V176h-16v296c0,8.8-7.2,16-16,16s-16-7.2-16-16V329.2
	c10.2-22.3,16-47.1,16-73.2c0-51.9-22.6-98.6-58.5-130.9c8.4-3.3,17.3-5.1,26.5-5.1h16c39.7,0,72,32.3,72,72V272z"/>
<path class="st1" d="M227,64.6l-24.1-9.6c17.3-4.5,35.1-6.9,53.1-6.9c26.5,0,52.3,4.9,76.7,14.6l5.9-14.9
	C312.3,37.3,284.5,32,256,32c-19.3,0-38.3,2.5-56.7,7.3l8.1-20.3L192.6,13l-19,47.4l47.4,19L227,64.6z"/>
<path class="st1" d="M285,447.4l24,9.6c-42.5,11.1-88.5,8.7-129.4-7.5l-5.9,14.9c26.2,10.3,53.9,15.6,82.3,15.6
	c19.3,0,38.3-2.5,56.7-7.3l-8.1,20.3l14.9,5.9l19-47.4l-47.4-19L285,447.4z"/>
<path class="st1" d="M192,280h16v16h-16V280z"/>
<path class="st1" d="M224,280h16v16h-16V280z"/>
<path class="st1" d="M256,280h16v16h-16V280z"/>
<path class="st1" d="M304,216h16v16h-16V216z"/>
<path class="st1" d="M272,216h16v16h-16V216z"/>
<path class="st1" d="M240,216h16v16h-16V216z"/>
</svg>
