<?xml version="1.0" encoding="utf-8"?>
<!-- Generator: Adobe Illustrator 21.1.0, SVG Export Plug-In . SVG Version: 6.00 Build 0)  -->
<svg version="1.1" id="Layer_35" xmlns="http://www.w3.org/2000/svg" xmlns:xlink="http://www.w3.org/1999/xlink" x="0px" y="0px"
	 viewBox="0 0 512 512" style="enable-background:new 0 0 512 512;" xml:space="preserve">
<style type="text/css">
	.st0{fill:#625EA7;}
	.st1{fill:#222026;}
</style>
<g>
	<path class="st0" d="M280.3,451l-6.5-65.4c-5.8-0.9-11.7-1.5-17.8-1.5s-12,0.6-17.8,1.5l-6.5,65.4l24.3,24.3L280.3,451z"/>
	<path class="st0" d="M400,424c17.6,0,32-14.4,32-32c0-0.8-0.2-1.7-0.3-2.5c-9.9-3.5-20.6-5.5-31.7-5.5s-21.8,2-31.7,5.5
		c-0.1,0.8-0.3,1.7-0.3,2.5C368,409.6,382.4,424,400,424z"/>
	<path class="st0" d="M80.3,389.5c-0.1,0.8-0.3,1.7-0.3,2.5c0,17.6,14.4,32,32,32s32-14.4,32-32c0-0.9-0.2-1.7-0.3-2.5
		c-9.9-3.5-20.6-5.5-31.7-5.5S90.2,386,80.3,389.5z"/>
</g>
<path class="st1" d="M434.3,381.9c17.8-11.4,29.7-31.3,29.7-53.9c0-32.6-24.5-59.5-56-63.4V240c0-13.2,10.8-24,24-24h16
	c30.9,0,56-25.1,56-56s-25.1-56-56-56h-91.4c2.2-4.9,3.4-10.3,3.4-16c0-19.3-13.8-35.5-32.1-39.2c0-0.3,0.1-0.5,0.1-0.8
	c0-22.1-17.9-40-40-40c-13.1,0-24.7,6.3-32,16c-7.3-9.7-18.9-16-32-16c-19.6,0-35.8,14.1-39.3,32.7C166.1,44.2,152,60.4,152,80
	c0,8.8,2.9,17.2,8.1,24H64c-30.9,0-56,25.1-56,56s25.1,56,56,56h16c13.2,0,24,10.8,24,24v24.6c-31.5,4-56,30.9-56,63.4
	c0,22.7,11.9,42.6,29.7,53.9C37.2,396.2,8,434.7,8,480v24h128h16.5H360h16h128v-24C504,434.7,474.8,396.2,434.3,381.9L434.3,381.9z
	 M448,328c0,26.5-21.5,48-48,48s-48-21.5-48-48s21.5-48,48-48S448,301.5,448,328z M488,160c0,22.1-17.9,40-40,40h-16
	c-22.1,0-40,17.9-40,40v24.6c-31.5,4-56,30.9-56,63.4c0,22.6,11.8,42.5,29.6,53.9c-12.7,4.4-24.5,11.3-34.7,20.5
	c-11.6-9.3-25-16.6-39.6-21.1c17.3-11.5,28.7-31.1,28.7-53.3c0-32.6-24.5-59.5-56-63.4v-56.7c6.7,5.1,15,8.1,24,8.1
	c19.6,0,35.8-14.1,39.3-32.7c18.6-3.4,32.7-19.7,32.7-39.3c0-8.8-2.9-17.2-8.1-24H448C470.1,120,488,137.9,488,160L488,160z
	 M208,328c0-26.5,21.5-48,48-48s48,21.5,48,48s-21.5,48-48,48S208,354.5,208,328z M192,56c13.2,0,24,10.8,24,24h16
	c0-18.9-13.2-34.7-30.9-38.9c3-9.9,12-17.1,22.9-17.1c13.2,0,24,10.8,24,24h16c0-13.2,10.8-24,24-24s24,10.8,24,24s-10.8,24-24,24
	v16c16.2,0,30.1-9.7,36.4-23.6C335.5,66.5,344,76.3,344,88c0,13.2-10.8,24-24,24v16c5.1,0,10-1.1,14.5-2.8
	c5.8,4.5,9.5,11.3,9.5,18.8c0,13.2-10.8,24-24,24s-24-10.8-24-24h-16c0,18.9,13.2,34.7,30.9,38.9c-3,9.9-12,17.1-22.9,17.1
	c-13.2,0-24-10.8-24-24h-16c0,13.2-10.8,24-24,24s-24-10.8-24-24s10.8-24,24-24v-16c-16.2,0-30.1,9.7-36.4,23.6
	c-11.2-2.1-19.6-11.8-19.6-23.6c0-13.2,10.8-24,24-24V96c-5.1,0-10,1.1-14.5,2.8c-5.8-4.5-9.5-11.3-9.5-18.8
	C168,66.8,178.8,56,192,56z M80,200H64c-22.1,0-40-17.9-40-40s17.9-40,40-40h91.4c-2.2,4.9-3.4,10.3-3.4,16
	c0,19.3,13.8,35.5,32.1,39.2c0,0.3-0.1,0.5-0.1,0.8c0,22.1,17.9,40,40,40c9,0,17.3-3,24-8.1v56.7c-31.5,4-56,30.9-56,63.4
	c0,22.2,11.4,41.8,28.7,53.3c-14.6,4.5-28,11.8-39.6,21.1c-10.3-9.2-22-16.1-34.7-20.5c17.8-11.4,29.6-31.3,29.6-53.9
	c0-32.6-24.5-59.5-56-63.4V240C120,217.9,102.1,200,80,200z M64,328c0-26.5,21.5-48,48-48s48,21.5,48,48s-21.5,48-48,48
	S64,354.5,64,328z M64,488v-40H48v40H24v-8c0-48.5,39.5-88,88-88c21.3,0,41.4,7.5,57.3,21.3c-18.8,19.7-31,45.8-32.9,74.7H64z
	 M336,488v-40h-16v40H192v-40h-16v40h-23.5h-0.2c4.1-53.6,49-96,103.7-96s99.6,42.4,103.7,96H336z M488,488h-24v-40h-16v40h-72.4
	c-1.9-28.9-14.1-55-32.9-74.7c15.9-13.7,36-21.3,57.3-21.3c48.5,0,88,39.5,88,88V488z"/>
</svg>
