<?xml version="1.0" encoding="utf-8"?>
<!-- Generator: Adobe Illustrator 21.1.0, SVG Export Plug-In . SVG Version: 6.00 Build 0)  -->
<svg version="1.1" id="Layer_35" xmlns="http://www.w3.org/2000/svg" xmlns:xlink="http://www.w3.org/1999/xlink" x="0px" y="0px"
	 viewBox="0 0 512 512" style="enable-background:new 0 0 512 512;" xml:space="preserve">
<style type="text/css">
	.st0{fill:#625EA7;}
	.st1{fill:#FFFFFF;}
</style>
<g>
	<path class="st0" d="M504,104h-96V24h96V104z"/>
	<path class="st0" d="M504,216h-96v-80h96V216z"/>
	<path class="st0" d="M504,328h-96v-80h96V328z"/>
	<path class="st0" d="M184,40h144v40H184V40z"/>
	<path class="st0" d="M152,120v114.1c10.3,7.2,18,17.6,21.6,29.9H200V120H152z"/>
	<path class="st0" d="M264,248v-80h-48v96h32L264,248z"/>
	<path class="st0" d="M280,104v126.4l0.9,0.6l0.4-0.4c4.2-4.2,10-6.6,16-6.6c12.5,0,22.6,10.1,22.6,22.6c0,2.9-0.6,5.8-1.7,8.4
		l9.7-7.1V104H280z"/>
</g>
<path class="st1" d="M440,56h32v16h-32V56z"/>
<path class="st1" d="M440,168h32v16h-32V168z"/>
<path class="st1" d="M440,280h32v16h-32V280z"/>
<path class="st1" d="M376,168h-16V8H156.7L72,92.7v145.1c-9.9,11.3-16,26-16,42.2c0,20,9.2,37.8,23.6,49.6C38.9,337.3,8,373.1,8,416
	v88h184V401.4c0-3.9,1.5-7.6,4.3-10.3l47-47H360V184h16v112h32v-16h-16v-96h16v-16h-16V72h16V56h-32V168z M152,35.3V88H99.3
	L152,35.3z M72,280c0-26.5,21.5-48,48-48s48,21.5,48,48s-21.5,48-48,48S72,306.5,72,280z M143.7,339.4C142,351,132.1,360,120,360
	s-22-9-23.7-20.6c7.3,2.9,15.3,4.6,23.7,4.6S136.3,342.3,143.7,339.4z M185,379.7c-5.8,5.8-9,13.5-9,21.7V488H64v-96H48v96H24v-72
	c0-34.7,24.6-63.7,57.3-70.5c4.3,17.4,20,30.5,38.7,30.5c21.1,0,38.2-16.4,39.7-37.1c21.2-5.2,40.9-16.2,56.3-31.6l71-71
	c2.8-2.8,6.4-4.3,10.3-4.3c8.1,0,14.6,6.6,14.6,14.6c0,3.9-1.5,7.6-4.3,10.3L185,379.7z M344,328h-84.7l59.7-59.7
	c5.8-5.8,9-13.5,9-21.7c0-16.9-13.7-30.6-30.6-30.6c-8.2,0-15.9,3.2-21.7,9l-71,71c-9.6,9.6-21.1,17.2-33.6,22.4
	c8.1-10.7,12.9-24,12.9-38.4c0-35.3-28.7-64-64-64c-11.7,0-22.6,3.2-32,8.7V104h80V24h176L344,328z"/>
<path class="st1" d="M312,40h16v16h-16V40z"/>
<path class="st1" d="M280,40h16v16h-16V40z"/>
<path class="st1" d="M184,40h80v16h-80V40z"/>
<path class="st1" d="M184,72h144v16H184V72z"/>
<path class="st1" d="M104,120h16v16h-16V120z"/>
<path class="st1" d="M104,152h16v16h-16V152z"/>
<path class="st1" d="M104,184h16v16h-16V184z"/>
</svg>
