<?xml version="1.0" encoding="utf-8"?>
<!-- Generator: Adobe Illustrator 21.1.0, SVG Export Plug-In . SVG Version: 6.00 Build 0)  -->
<svg version="1.1" id="Layer_35" xmlns="http://www.w3.org/2000/svg" xmlns:xlink="http://www.w3.org/1999/xlink" x="0px" y="0px"
	 viewBox="0 0 512 512" style="enable-background:new 0 0 512 512;" xml:space="preserve">
<style type="text/css">
	.st0{fill:#625EA7;}
	.st1{fill:#222026;}
</style>
<path class="st0" d="M408,280H272l-60.6,60.6l-29.2-18.8L224,280H88c-8.8,0-16,7.2-16,16v160c0,8.8,7.2,16,16,16h320
	c8.8,0,16-7.2,16-16V296C424,287.2,416.8,280,408,280z"/>
<path class="st1" d="M464,248h-68.7l56.7-56.7l24.9,24.9l21.3-106.4l-106.4,21.3l24.9,24.9L368,204.7l-40-40L244.7,248H224v-54.6
	c0-3.9,1.5-7.6,4.3-10.3L351,60.3c5.8-5.8,9-13.5,9-21.7C360,21.7,346.3,8,329.4,8c-8.2,0-15.9,3.2-21.7,9l-71,71
	c-9.6,9.6-21.1,17.2-33.6,22.4c8.1-10.7,12.9-24,12.9-38.4c0-35.3-28.7-64-64-64S88,36.7,88,72c0,20,9.2,37.8,23.6,49.6
	C70.9,129.3,40,165.1,40,208v40.8C21.8,252.5,8,268.7,8,288v176c0,22.1,17.9,40,40,40h416c22.1,0,40-17.9,40-40V288
	C504,265.9,486.1,248,464,248z M368,227.3l71.3-71.3l-15.1-15.1l53.6-10.7l-10.7,53.6L452,168.7l-84,84l-40-40L211.5,329.2
	c-4.5-4.1-9.5-7.6-15-10.4L328,187.3L368,227.3z M340.7,248h-25.4l12.7-12.7L340.7,248z M160,368h-39.3
	c3.4-20.1,19.2-35.9,39.3-39.3V368z M164.7,384l31.1,31.1c-7.8,5.6-17.4,8.9-27.8,8.9c-23.7,0-43.4-17.3-47.3-40H164.7z
	 M207.1,403.8L176,372.7v-44c22.7,3.8,40,23.5,40,47.3C216,386.4,212.7,395.9,207.1,403.8L207.1,403.8z M104,72
	c0-26.5,21.5-48,48-48s48,21.5,48,48s-21.5,48-48,48S104,98.5,104,72z M175.7,131.4C174,143,164.1,152,152,152s-22-9-23.7-20.6
	c7.3,2.9,15.3,4.6,23.7,4.6S168.3,134.3,175.7,131.4z M113.3,137.5c4.3,17.4,20,30.5,38.7,30.5c21.1,0,38.2-16.4,39.7-37.1
	c21.2-5.2,40.9-16.2,56.3-31.6l71-71c2.8-2.8,6.4-4.3,10.3-4.3c8.1,0,14.6,6.6,14.6,14.6c0,3.9-1.5,7.6-4.3,10.3L217,171.7
	c-5.8,5.8-9,13.5-9,21.7V248H96v-64H80v64H56v-40C56,173.3,80.6,144.3,113.3,137.5L113.3,137.5z M24,344h8c4.4,0,8,3.6,8,8v48
	c0,4.4-3.6,8-8,8h-8V344z M24,464v-40h8c13.2,0,24-10.8,24-24v-48c0-13.2-10.8-24-24-24h-8v-40c0-13.2,10.8-24,24-24h180.7
	l-49.1,49.1c-3.8-0.7-7.6-1.1-11.6-1.1c-35.3,0-64,28.7-64,64s28.7,64,64,64s64-28.7,64-64c0-12.7-3.8-24.5-10.2-34.5l77.5-77.5
	h57.4l11.3,11.3l11.3-11.3H440v224H48C34.8,488,24,477.2,24,464z M488,464c0,13.2-10.8,24-24,24h-8V264h8c13.2,0,24,10.8,24,24V464z
	"/>
<path class="st1" d="M312,312v64h80v-64H312z M376,360h-48v-32h48V360z"/>
<path class="st1" d="M248,344h16v96h-16V344z"/>
<path class="st1" d="M280,424h16v16h-16V424z"/>
<path class="st1" d="M280,392h16v16h-16V392z"/>
<path class="st1" d="M280,312h16v64h-16V312z"/>
<path class="st1" d="M312,392h16v48h-16V392z"/>
<path class="st1" d="M344,392h16v48h-16V392z"/>
<path class="st1" d="M376,392h16v48h-16V392z"/>
</svg>
