<?xml version="1.0" encoding="utf-8"?>
<!-- Generator: Adobe Illustrator 21.1.0, SVG Export Plug-In . SVG Version: 6.00 Build 0)  -->
<svg version="1.1" id="Layer_35" xmlns="http://www.w3.org/2000/svg" xmlns:xlink="http://www.w3.org/1999/xlink" x="0px" y="0px"
	 viewBox="0 0 512 512" style="enable-background:new 0 0 512 512;" xml:space="preserve">
<style type="text/css">
	.st0{fill:#625EA7;}
	.st1{fill:#FFFFFF;}
</style>
<g>
	<path class="st0" d="M96,192c-3.4,0-6.8,0.3-10.1,0.7L79.7,267l24.3,24.3l24.3-24.3l-6.3-75h-18L96,192z"/>
	<path class="st0" d="M448,232h-16c-13.2,0-24-10.8-24-24v-24h40c13.2,0,24,10.8,24,24S461.2,232,448,232z"/>
	<path class="st0" d="M216,88h-40c-13.2,0-24-10.8-24-24s10.8-24,24-24h16c13.2,0,24,10.8,24,24V88z"/>
	<path class="st0" d="M424,48h48v96h-48V48z"/>
</g>
<path class="st1" d="M120,8v82.4c-5.1-1.5-10.4-2.4-16-2.4c-30.9,0-56,25.1-56,56c0,17.9,8.5,33.8,21.6,44.1
	C33.9,199.3,8,232.7,8,272v56c0,17.6,14.4,32,32,32h8v112c0,17.6,14.4,32,32,32c9.6,0,18.1-4.3,24-11.1c5.9,6.7,14.4,11.1,24,11.1
	c17.6,0,32-14.4,32-32V274.1c0-3.5,0.4-6.9,1.3-10.1H504V8H120z M64,144c0-22.1,17.9-40,40-40s40,17.9,40,40s-17.9,40-40,40
	S64,166.1,64,144z M144,274.1V472c0,8.8-7.2,16-16,16s-16-7.2-16-16V328H96v144c0,8.8-7.2,16-16,16s-16-7.2-16-16V256H48v88h-8
	c-8.8,0-16-7.2-16-16v-56c0-39.7,32.3-72,72-72h50.4c10.4,0,20.5-2.9,29.4-8.3l87.9-54.1c1.7-1,3.6-1.6,5.6-1.6
	c5.9,0,10.7,4.8,10.7,10.7v3.1c0,3.6-1.8,7-4.9,9l-105.5,68.3C153.6,237.5,144,255,144,274.1L144,274.1z M232,136
	c0-41.4,31.6-75.6,72-79.6v82.9l58.6,58.6C348.8,209.2,331.2,216,312,216c-22.1,0-42.7-8.9-57.7-24.6l29.5-19.1
	c7.6-4.9,12.2-13.3,12.2-22.4v-3.1c0-14.7-12-26.7-26.7-26.7c-4.9,0-9.8,1.4-14,4l-23.2,14.3C232.1,137.5,232,136.7,232,136L232,136
	z M373.9,186.6L331.3,144h60.3C390,160.1,383.6,174.7,373.9,186.6z M320,128V56.4c37.7,3.8,67.8,33.9,71.6,71.6H320z M488,248H169.8
	c2.4-2.8,5.3-5.4,8.5-7.5l62.5-40.4c18.2,20.3,43.7,31.9,71.3,31.9c52.9,0,96-43.1,96-96s-43.1-96-96-96s-96,43.1-96,96
	c0,3.9,0.3,7.8,0.8,11.7l-49.4,30.4c-6.3,3.9-13.6,5.9-21,5.9h-3.3c10.4-10.2,16.9-24.3,16.9-40c0-19-9.5-35.8-24-45.9V24h352V248z"
	/>
<path class="st1" d="M447.8,382c14.6-10.1,24.2-27,24.2-46c0-30.9-25.1-56-56-56s-56,25.1-56,56c0,19.1,9.6,35.9,24.2,46
	c-21.4,8.3-38.7,24.7-48.2,45.5c-9.5-20.8-26.8-37.2-48.2-45.5c14.6-10.1,24.2-27,24.2-46c0-30.9-25.1-56-56-56s-56,25.1-56,56
	c0,19.1,9.6,35.9,24.2,46c-32.8,12.8-56.2,44.7-56.2,82v40h160h16h160v-40C504,426.7,480.6,394.8,447.8,382z M376,336
	c0-22.1,17.9-40,40-40s40,17.9,40,40s-17.9,40-40,40S376,358.1,376,336z M216,336c0-22.1,17.9-40,40-40s40,17.9,40,40
	s-17.9,40-40,40S216,358.1,216,336z M328,488h-24v-64h-16v64h-64v-64h-16v64h-24v-24c0-39.7,32.3-72,72-72s72,32.3,72,72V488z
	 M488,488h-24v-64h-16v64h-64v-64h-16v64h-24v-24c0-39.7,32.3-72,72-72s72,32.3,72,72V488z"/>
<path class="st1" d="M424,40h48v16h-48V40z"/>
<path class="st1" d="M424,72h48v16h-48V72z"/>
<path class="st1" d="M424,104h48v16h-48V104z"/>
<path class="st1" d="M424,136h48v16h-48V136z"/>
</svg>
