<?xml version="1.0" encoding="utf-8"?>
<!-- Generator: Adobe Illustrator 21.1.0, SVG Export Plug-In . SVG Version: 6.00 Build 0)  -->
<svg version="1.1" id="Layer_35" xmlns="http://www.w3.org/2000/svg" xmlns:xlink="http://www.w3.org/1999/xlink" x="0px" y="0px"
	 viewBox="0 0 512 512" style="enable-background:new 0 0 512 512;" xml:space="preserve">
<style type="text/css">
	.st0{fill:#625EA7;}
	.st1{fill:#222026;}
</style>
<path class="st0" d="M288.7,227.8l-14.7-98.3c-5.8-0.9-11.8-1.6-17.9-1.6c-6.1,0-12.1,0.6-17.9,1.6l-14.7,98.3l32.7,21.8
	L288.7,227.8z"/>
<path class="st0" d="M416,184c-48.5,0-88-39.5-88-88s39.5-88,88-88s88,39.5,88,88S464.5,184,416,184z"/>
<path class="st1" d="M504,288c0-17.6-14.4-32-32-32h-96v-16c0-53.9-35.7-99.6-84.7-114.7C308.6,113.8,320,94.2,320,72
	c0-35.3-28.7-64-64-64s-64,28.7-64,64c0,22.2,11.4,41.8,28.7,53.3c-49,15.1-84.7,60.8-84.7,114.7v16H40c-17.6,0-32,14.4-32,32
	c0,11.8,6.5,22,16,27.6V504h48v-32h368v32h48V315.6C497.5,310,504,299.8,504,288z M208,72c0-26.5,21.5-48,48-48s48,21.5,48,48
	s-21.5,48-48,48S208,98.5,208,72z M152,240c0-57.3,46.7-104,104-104s104,46.7,104,104v16h-24v-64h-16v64H192v-64h-16v64h-24V240z
	 M40,488V320h16v168H40z M72,456V320h368v136H72z M472,488h-16V320h16V488z M472,304H40c-8.8,0-16-7.2-16-16s7.2-16,16-16h432
	c8.8,0,16,7.2,16,16S480.8,304,472,304z"/>
<path class="st1" d="M200,336h-80c-17.6,0-32,14.4-32,32s14.4,32,32,32h80c17.6,0,32-14.4,32-32S217.6,336,200,336z M200,384h-80
	c-8.8,0-16-7.2-16-16s7.2-16,16-16h80c8.8,0,16,7.2,16,16S208.8,384,200,384z"/>
<path class="st1" d="M184,104h-16V40h-16v64h-16V24h-16v80h-16V40H88v64H72V56H56v48H40V72H24v32H8v16h176V104z"/>
<path class="st1" d="M416,120c-4.4,0-8-3.6-8-8h-16c0,10.4,6.7,19.2,16,22.5V152h16v-16h16v-24c0-13.2-10.8-24-24-24
	c-4.4,0-8-3.6-8-8v-8h8c4.4,0,8,3.6,8,8h16c0-10.4-6.7-19.2-16-22.5V40h-16v16h-16v24c0,13.2,10.8,24,24,24c4.4,0,8,3.6,8,8v8H416z"
	/>
<path class="st1" d="M456,88h16v16h-16V88z"/>
<path class="st1" d="M360,88h16v16h-16V88z"/>
</svg>
