<?xml version="1.0" encoding="utf-8"?>
<!-- Generator: Adobe Illustrator 21.1.0, SVG Export Plug-In . SVG Version: 6.00 Build 0)  -->
<svg version="1.1" id="Layer_35" xmlns="http://www.w3.org/2000/svg" xmlns:xlink="http://www.w3.org/1999/xlink" x="0px" y="0px"
	 viewBox="0 0 512 512" style="enable-background:new 0 0 512 512;" xml:space="preserve">
<style type="text/css">
	.st0{fill:#625EA7;}
	.st1{fill:#222026;}
</style>
<g>
	<path class="st0" d="M400,219.3L375.7,195l7.5-75h33.7l7.5,75L400,219.3z"/>
	<path class="st0" d="M112,219.3L87.7,195l7.5-75h33.7l7.5,75L112,219.3z"/>
	<path class="st0" d="M213.6,136.4l42.4,33.9l42.4-33.9C285.3,131,271,128,256,128S226.7,131,213.6,136.4z"/>
</g>
<path class="st1" d="M504,232h-16v-24c0-36.8-22.7-68.3-54.7-81.4C451.7,115.3,464,95.1,464,72c0-35.3-28.7-64-64-64s-64,28.7-64,64
	c0,22.6,11.8,42.5,29.6,53.9c-12.7,4.4-24.5,11.3-34.7,20.5c-11.6-9.3-25-16.6-39.6-21.1C308.6,113.8,320,94.2,320,72
	c0-35.3-28.7-64-64-64s-64,28.7-64,64c0,22.2,11.4,41.8,28.7,53.3c-14.6,4.5-28,11.8-39.6,21.1c-10.3-9.2-22-16.1-34.7-20.5
	C164.2,114.5,176,94.6,176,72c0-35.3-28.7-64-64-64S48,36.7,48,72c0,23.1,12.3,43.3,30.7,54.6C46.7,139.7,24,171.2,24,208v24H8v256
	h112.8c-0.5,2.6-0.8,5.3-0.8,8v8h272v-8c0-2.7-0.3-5.4-0.8-8H504V232z M352,72c0-26.5,21.5-48,48-48s48,21.5,48,48s-21.5,48-48,48
	S352,98.5,352,72z M472,208v24h-24v-40h-16v40h-56.4c-1.9-28.9-14.1-55-32.9-74.7c15.9-13.7,36-21.3,57.3-21.3
	C439.7,136,472,168.3,472,208z M208,72c0-26.5,21.5-48,48-48s48,21.5,48,48s-21.5,48-48,48S208,98.5,208,72z M359.6,232H340
	c-1.3-1.8-2.6-3.6-4-5.4V192h-16v18.2c-5.9-4.9-12.3-9.2-19.2-12.9c-2.5-9.9-7.5-19.2-15.1-26.9l-6.7-6.7l-15.4,21.5
	c-5.2-0.7-10.4-1.2-15.6-1.2c-17.6,0-33.2,12.5-36.9,29.8l-1.8,8.1c-6.1,2.4-12,5.4-17.4,9V192h-16v40h-23.6
	c4.1-53.6,48.9-96,103.6-96S355.5,178.4,359.6,232L359.6,232z M344,456h-16V303.2c0-26.9-12.3-51-31.5-67c3.1-6.3,5-12.8,5.6-19.5
	c26.1,17.7,41.8,47,41.8,79.3V456z M216,363.3V352h24c22.1,0,40-17.9,40-40v-16h-16v16c0,13.2-10.8,24-24,24h-24h-15.6H200v0
	c-7,0.1-13.9,2.4-19.5,6.6l-18.5,13.9c-3,2.2-6.6,3.4-10.3,3.4c-6.6,0-12.5-3.6-15.4-9.5l-6.9-13.8l53.5-74.9
	c13.3-18.7,35-29.8,58-29.8c39.3,0,71.2,32,71.2,71.2V456H168v-28.1c0-10.7,4.2-20.7,11.7-28.3L216,363.3z M283.3,227.1
	c-7.3-4.1-15.2-7.1-23.5-9l20.6-28.9C287.4,200.6,288.5,214.7,283.3,227.1z M241.6,216c-0.3,0-0.5,0-0.8,0c-4.7,0-9.4,0.5-14,1.3
	l0-0.1c2.1-9.9,11.1-17.1,21.2-17.1c1.6,0,3.2,0.1,4.9,0.2L241.6,216z M64,72c0-26.5,21.5-48,48-48s48,21.5,48,48s-21.5,48-48,48
	S64,98.5,64,72z M40,208c0-39.7,32.3-72,72-72c21.3,0,41.4,7.5,57.3,21.3c-18.8,19.7-31,45.8-32.9,74.7H80v-40H64v40H40L40,208z
	 M24,472V248h149.5c-1.2,1.5-2.5,2.9-3.7,4.5l-59.1,82.7l11.2,22.4c5.7,11.3,17.1,18.4,29.7,18.4c7.1,0,14.2-2.4,19.9-6.6l18.5-13.9
	c2.9-2.1,6.4-3.3,9.9-3.4v4.7l-31.6,31.6c-10.6,10.6-16.4,24.6-16.4,39.6v28.9c-9.7,2-18,7.6-23.8,15.2L24,472L24,472z M137.4,488
	c3.3-9.3,12.2-16,22.6-16h192c10.4,0,19.3,6.7,22.6,16H137.4z M488,472H383.8c-5.8-7.6-14.1-13.2-23.8-15.2V296
	c0-17-3.8-33.3-10.7-48H488V472z"/>
<path class="st1" d="M40,264h16v16H40V264z"/>
<path class="st1" d="M40,296h16v16H40V296z"/>
<path class="st1" d="M40,328h16v16H40V328z"/>
<path class="st1" d="M456,264h16v16h-16V264z"/>
<path class="st1" d="M456,296h16v16h-16V296z"/>
<path class="st1" d="M456,328h16v16h-16V328z"/>
<path class="st1" d="M216,264c-13.2,0-24,10.8-24,24s10.8,24,24,24s24-10.8,24-24S229.2,264,216,264z M216,296c-4.4,0-8-3.6-8-8
	s3.6-8,8-8s8,3.6,8,8S220.4,296,216,296z"/>
<path class="st1" d="M280,424h16v16h-16V424z"/>
<path class="st1" d="M280,392h16v16h-16V392z"/>
<path class="st1" d="M280,360h16v16h-16V360z"/>
</svg>
