<?xml version="1.0" encoding="utf-8"?>
<!-- Generator: Adobe Illustrator 21.1.0, SVG Export Plug-In . SVG Version: 6.00 Build 0)  -->
<svg version="1.1" id="Layer_35" xmlns="http://www.w3.org/2000/svg" xmlns:xlink="http://www.w3.org/1999/xlink" x="0px" y="0px"
	 viewBox="0 0 512 512" style="enable-background:new 0 0 512 512;" xml:space="preserve">
<style type="text/css">
	.st0{fill:#222026;}
	.st1{fill:#625EA7;}
</style>
<path class="st0" d="M72,344H56V112H7.1L96,3.4L184.9,112H136v72h-16V96h31.1L96,28.6L40.9,96H72V344z"/>
<path class="st0" d="M120,232h16v112h-16V232z"/>
<path class="st0" d="M376,312h16v32h-16V312z"/>
<path class="st0" d="M456,344h-16V96h31.1L416,28.6L360.9,96H392v168h-16V112h-48.9L416,3.4L504.9,112H456V344z"/>
<path class="st1" d="M96,504c-48.5,0-88-39.5-88-88s39.5-88,88-88s88,39.5,88,88S144.5,504,96,504z"/>
<path class="st0" d="M96,408c-4.4,0-8-3.6-8-8v-8h8c4.4,0,8,3.6,8,8h16c0-10.4-6.7-19.2-16-22.5V360H88v16H72v24
	c0,13.2,10.8,24,24,24c4.4,0,8,3.6,8,8v8h-8c-4.4,0-8-3.6-8-8H72c0,10.4,6.7,19.2,16,22.5V472h16v-16h16v-24
	C120,418.8,109.2,408,96,408z"/>
<path class="st0" d="M136,408h16v16h-16V408z"/>
<path class="st0" d="M40,408h16v16H40V408z"/>
<path class="st1" d="M416,504c-48.5,0-88-39.5-88-88s39.5-88,88-88s88,39.5,88,88S464.5,504,416,504z"/>
<path class="st0" d="M416,392c4.4,0,8,3.6,8,8h16c0-10.4-6.7-19.2-16-22.5V360h-16v16h-16v24c0,13.2,10.8,24,24,24c4.4,0,8,3.6,8,8
	v8h-8c-4.4,0-8-3.6-8-8h-16c0,10.4,6.7,19.2,16,22.5V472h16v-16h16v-24c0-13.2-10.8-24-24-24c-4.4,0-8-3.6-8-8v-8H416z"/>
<path class="st0" d="M456,408h16v16h-16V408z"/>
<path class="st0" d="M360,408h16v16h-16V408z"/>
<path class="st1" d="M239.8,129.6l-8.2,73.4l24.4,24.4l24.4-24.4l-8.2-73.4c-5.3-1-10.7-1.6-16.2-1.6S245,128.6,239.8,129.6z"/>
<path class="st0" d="M289.8,126.3C307.9,114.9,320,94.9,320,72c0-35.3-28.7-64-64-64s-64,28.7-64,64c0,22.9,12.1,42.9,30.2,54.3
	C185.9,140,160,175,160,216v64c0,17.6,14.4,32,32,32h8v160c0,17.6,14.4,32,32,32c9.6,0,18.1-4.3,24-11.1c5.9,6.7,14.4,11.1,24,11.1
	c17.6,0,32-14.4,32-32V312h8c17.6,0,32-14.4,32-32v-64C352,175,326.1,140,289.8,126.3z M208,72c0-26.5,21.5-48,48-48s48,21.5,48,48
	s-21.5,48-48,48S208,98.5,208,72z M336,280c0,8.8-7.2,16-16,16h-8V184h-16v288c0,8.8-7.2,16-16,16s-16-7.2-16-16V272h-16v200
	c0,8.8-7.2,16-16,16s-16-7.2-16-16V184h-16v112h-8c-8.8,0-16-7.2-16-16v-64c0-44.1,35.9-80,80-80s80,35.9,80,80V280z"/>
<path class="st0" d="M120,200h16v16h-16V200z"/>
<path class="st0" d="M376,280h16v16h-16V280z"/>
</svg>
