<?xml version="1.0" encoding="utf-8"?>
<!-- Generator: Adobe Illustrator 21.1.0, SVG Export Plug-In . SVG Version: 6.00 Build 0)  -->
<svg version="1.1" id="Capa_1" xmlns="http://www.w3.org/2000/svg" xmlns:xlink="http://www.w3.org/1999/xlink" x="0px" y="0px"
	 viewBox="0 0 444.5 444.5" style="enable-background:new 0 0 444.5 444.5;" xml:space="preserve">
<g>
	<path d="M213.1,222.4L351.8,83.7c7-7,10.6-15.7,10.6-25.8c0-10.3-3.5-18.9-10.6-25.9l-21.4-21.4c-7-7-15.7-10.6-25.8-10.6
		c-10.1,0-18.8,3.5-25.8,10.6L92.7,196.5c-7,7-10.6,15.7-10.6,25.8s3.5,18.8,10.6,25.8L278.8,434c7,7,15.7,10.6,25.8,10.6
		s18.8-3.5,25.8-10.6l21.4-21.4c7-7,10.6-15.6,10.6-25.7s-3.5-18.7-10.6-26L213.1,222.4z"/>
</g>
</svg>
