<?xml version="1.0" encoding="utf-8"?>
<!-- Generator: Adobe Illustrator 21.1.0, SVG Export Plug-In . SVG Version: 6.00 Build 0)  -->
<svg version="1.1" id="_x35__стр" xmlns="http://www.w3.org/2000/svg" xmlns:xlink="http://www.w3.org/1999/xlink" x="0px"
	 y="0px" viewBox="0 0 167.9 99.2" style="enable-background:new 0 0 167.9 99.2;" xml:space="preserve">
<style type="text/css">
	.st0{fill:#FFFFFF;}
</style>
<g>
	<g>
		<g>
			<polygon class="st0" points="5.5,49.6 12.7,42.5 9.9,39.7 0,49.6 49.6,99.2 62.3,86.5 59.6,83.7 49.6,93.7 			"/>
			<path class="st0" d="M41,51l10-10l5.7,5.7l2.8-2.8l-7.1-7.1L51,35.5l-2.9-2.9l-2.8,2.8l2.9,2.9l-10,10L22.6,32.6l4.3-4.3
				c3.9-3.9,3.9-10.2,0-14.1s-10.2-3.9-14.1,0s-3.9,10.2,0,14.1l4.3,4.3l-2.9,2.9l2.8,2.8l2.9-2.9L35.5,51l-4.3,4.3
				c-3.9,3.9-3.9,10.2,0,14.1c3.9,3.9,10.2,3.9,14.1,0c3.9-3.9,3.9-10.2,0-14.1L41,51z M15.5,25.5c-2.4-2.4-2.4-6.2,0-8.6
				c2.4-2.4,6.2-2.4,8.6,0c2.4,2.4,2.4,6.2,0,8.6l-4.3,4.3L15.5,25.5z M42.5,66.7c-2.4,2.4-6.2,2.4-8.6,0c-2.4-2.4-2.4-6.2,0-8.6
				l4.3-4.3l4.3,4.3C44.9,60.5,44.9,64.3,42.5,66.7z"/>
			<path class="st0" d="M49.6,0L35.4,14.2l2.8,2.8L49.6,5.5l44.1,44.1L79.4,63.9L63.8,48.2L61,51l15.7,15.7l-4.3,4.3
				c-3.9,3.9-3.9,10.2,0,14.1c3.9,3.9,10.2,3.9,14.1,0c3.9-3.9,3.9-10.2,0-14.1l-4.3-4.3l17-17L49.6,0z M83.7,73.7
				c2.4,2.4,2.4,6.2,0,8.6c-2.4,2.4-6.2,2.4-8.6,0c-2.4-2.4-2.4-6.2,0-8.6l4.3-4.3L83.7,73.7z"/>
		</g>
		<ellipse transform="matrix(0.7071 -0.7071 0.7071 0.7071 -7.8427 49.0477)" class="st0" cx="55.3" cy="34" rx="2" ry="2"/>
	</g>
	<g>
		<g>
			<path class="st0" d="M122,44.7c-0.2-0.5-0.6-1-1-1.3c-0.3-0.3-1-0.6-2-0.6c-1.7,0-2.9,1.1-2.9,2.7c0,0.7,0.2,1.1,0.6,1.5
				c0.5,0.5,1.2,0.8,1.8,1.1l1.7,0.7c1,0.4,2,0.9,2.7,1.6c0.9,0.9,1.2,1.9,1.2,3.1c0,3.2-2.4,5.3-5.5,5.3c-1.1,0-2.6-0.2-3.8-1.4
				c-0.9-0.8-1.4-2-1.6-3.1l1.9-0.5c0.1,0.9,0.5,1.7,1,2.2c0.8,0.8,1.6,1,2.5,1c2.4,0,3.5-1.7,3.5-3.4c0-0.8-0.2-1.5-0.9-2
				c-0.5-0.5-1.2-0.8-2.1-1.2l-1.6-0.7c-0.7-0.3-1.5-0.7-2.3-1.4c-0.8-0.7-1.2-1.5-1.2-2.8c0-2.7,2.1-4.5,4.9-4.5
				c1.1,0,1.9,0.2,2.8,0.8c0.7,0.5,1.3,1.2,1.7,1.9L122,44.7z"/>
			<path class="st0" d="M136.8,55.9c-0.3,0.6-0.8,1.2-1.3,1.7c-1,0.9-2.2,1.3-3.6,1.3c-2.6,0-5.3-1.6-5.3-5.6c0-3.2,2-5.7,5.2-5.7
				c2.1,0,3.4,1,4.1,2c0.7,1,1.1,2.6,1,4.1h-8.4c0,2.2,1.6,3.7,3.4,3.7c0.9,0,1.6-0.3,2.2-0.8c0.5-0.4,0.9-1,1.1-1.5L136.8,55.9z
				 M135,52.1c-0.3-1.7-1.6-2.8-3.2-2.8s-2.9,1.2-3.2,2.8H135z"/>
			<path class="st0" d="M141.6,39.7v19h-1.9v-19H141.6z"/>
			<path class="st0" d="M147,39.7v19h-1.9v-19H147z"/>
			<path class="st0" d="M159.5,47.4v11.3h-3.2V47.4H159.5z"/>
			<path class="st0" d="M165.7,50.1v8.6h-3.2v-8.6h-1.2v-2.7h1.2v-3.8h3.2v3.8h2.2v2.7H165.7z"/>
		</g>
		<path class="st0" d="M158,42.2c1,0,1.9,0.9,1.9,1.9S159.1,46,158,46s-1.9-0.9-1.9-1.9S157,42.2,158,42.2z"/>
	</g>
</g>
</svg>
