<?xml version="1.0" encoding="utf-8"?>
<!-- Generator: Adobe Illustrator 21.1.0, SVG Export Plug-In . SVG Version: 6.00 Build 0)  -->
<svg version="1.1" id="Layer_35" xmlns="http://www.w3.org/2000/svg" xmlns:xlink="http://www.w3.org/1999/xlink" x="0px" y="0px"
	 viewBox="0 0 512 512" style="enable-background:new 0 0 512 512;" xml:space="preserve">
<style type="text/css">
	.st0{fill:#625EA7;}
	.st1{fill:#222026;}
</style>
<g>
	<path class="st0" d="M384,408h112v88H384V408z"/>
	<path class="st0" d="M272,456h104v40H272V456z"/>
	<path class="st0" d="M56.3,148.6l47.7,55.7l51.7-60.3H80C71.6,144,63.6,145.7,56.3,148.6z"/>
</g>
<path class="st1" d="M456,80h48v16h-48V80z"/>
<path class="st1" d="M444.2,32.9l48-24l7.2,14.3l-48,24L444.2,32.9z"/>
<path class="st1" d="M444.3,143.3l7.2-14.3l48,24l-7.2,14.3L444.3,143.3z"/>
<path class="st1" d="M376,392H264v48h-20.4c2.8-4.7,4.4-10.1,4.4-16v-64c0-39.7-32.3-72-72-72h-16l0-88c0-4.4,3.6-8,8-8h96
	c0,17.6,14.4,32,32,32s32-14.4,32-32v-57.8l70.1,17.5l3.9-15.5L248,97.8V78.2l153.9-38.5l-3.9-15.5L232,65.8v44.5l32,8V136H143.1
	c10.4-10.2,16.9-24.3,16.9-40c0-30.9-25.1-56-56-56S48,65.1,48,96c0,16.4,7.1,31.1,18.4,41.3C33.2,143.7,8,173,8,208v80
	c0,22.1,17.9,40,40,40v144c0,17.6,14.4,32,32,32s32-14.4,32-32V352h64c4.4,0,8,3.6,8,8v64c0,5.9,1.7,11.3,4.4,16H152v64h112h16h96
	h16h112V344H376V392z M312,130.2V192c0,8.8-7.2,16-16,16s-16-7.2-16-16v-69.8L312,130.2z M64,96c0-22.1,17.9-40,40-40s40,17.9,40,40
	s-17.9,40-40,40S64,118.1,64,96z M200,424v-64c0-13.2-10.8-24-24-24h-64v-40H96v176c0,8.8-7.2,16-16,16s-16-7.2-16-16V192H48v120
	c-13.2,0-24-10.8-24-24v-80c0-30.9,25.1-56,56-56h184v24h-96c-13.2,0-24,10.8-24,24l0,104h32c30.9,0,56,25.1,56,56v64
	c0,8.8-7.2,16-16,16S200,432.8,200,424z M264,488h-96v-32h96V488z M376,488h-96v-48v-32h96V488z M392,360h96v128h-96v-96V360z"/>
<path class="st0" d="M416,168c-13.2,0-24-10.8-24-24V32c0-13.2,10.8-24,24-24s24,10.8,24,24v112C440,157.2,429.2,168,416,168z"/>
</svg>
