<?xml version="1.0" encoding="utf-8"?>
<!-- Generator: Adobe Illustrator 21.1.0, SVG Export Plug-In . SVG Version: 6.00 Build 0)  -->
<svg version="1.1" id="Capa_1" xmlns="http://www.w3.org/2000/svg" xmlns:xlink="http://www.w3.org/1999/xlink" x="0px" y="0px"
	 viewBox="0 0 444.5 444.5" style="enable-background:new 0 0 444.5 444.5;" xml:space="preserve">
<g>
	<path d="M231.5,222.1L92.8,360.9c-7,7-10.6,15.7-10.6,25.8c0,10.3,3.5,18.9,10.6,25.9l21.4,21.4c7,7,15.7,10.6,25.8,10.6
		c10.1,0,18.8-3.5,25.8-10.6L351.9,248c7-7,10.6-15.7,10.6-25.8s-3.5-18.8-10.6-25.8L165.8,10.5c-7-7-15.7-10.6-25.8-10.6
		s-18.8,3.5-25.8,10.6L92.8,31.9c-7,7-10.6,15.6-10.6,25.7s3.5,18.7,10.6,26L231.5,222.1z"/>
</g>
</svg>
