<?xml version="1.0" encoding="utf-8"?>
<!-- Generator: Adobe Illustrator 21.1.0, SVG Export Plug-In . SVG Version: 6.00 Build 0)  -->
<svg version="1.1" id="Layer_35" xmlns="http://www.w3.org/2000/svg" xmlns:xlink="http://www.w3.org/1999/xlink" x="0px" y="0px"
	 viewBox="0 0 512 512" style="enable-background:new 0 0 512 512;" xml:space="preserve">
<style type="text/css">
	.st0{fill:#625EA7;}
	.st1{fill:#FFFFFF;}
</style>
<g>
	<path class="st0" d="M356,272c-11,0-20-9-20-20s9-20,20-20h28v-64H272v144h112v-40H356z"/>
	<path class="st0" d="M128,168v64h28c11,0,20,9,20,20s-9,20-20,20h-28v40h112V168H128z"/>
	<path class="st0" d="M184,352l48,56v-24h96v-32H184z"/>
	<path class="st0" d="M336,112l-48-56v24h-96v32H336z"/>
</g>
<path class="st1" d="M80,136h24h24c21.9,0,41.4,12.8,50.5,32h17.4c-8.3-23.4-28-40.7-51.8-46.2C158.6,110.1,168,92.1,168,72
	c0-35.3-28.7-64-64-64S40,36.7,40,72c0,20.1,9.4,38.1,24,49.9c-32,7.3-56,36-56,70.1v32c0,25.3,16.9,46.7,40,53.6V472
	c0,17.6,14.4,32,32,32c9.6,0,18.1-4.3,24-11.1c5.9,6.7,14.4,11.1,24,11.1c17.6,0,32-14.4,32-32V312h-16v160c0,8.8-7.2,16-16,16
	s-16-7.2-16-16V312H96v160c0,8.8-7.2,16-16,16s-16-7.2-16-16V280h92c15.4,0,28-12.6,28-28s-12.6-28-28-28H72c-4.4,0-8-3.6-8-8v-40
	H48v32H24v-16C24,161.1,49.1,136,80,136L80,136z M56,72c0-26.5,21.5-48,48-48s48,21.5,48,48s-21.5,48-48,48S56,98.5,56,72z
	 M49.5,224c3.3,9.3,12.1,16,22.5,16h84c6.6,0,12,5.4,12,12s-5.4,12-12,12H64c-22.1,0-40-17.9-40-40H49.5z"/>
<path class="st1" d="M448,121.9c14.6-11.7,24-29.7,24-49.9c0-35.3-28.7-64-64-64s-64,28.7-64,64c0,20.1,9.4,38.1,23.9,49.8
	c-23.8,5.4-43.6,22.7-51.8,46.2h17.4c9.1-19.2,28.6-32,50.5-32h24h24c30.9,0,56,25.1,56,56v16h-24v-32h-16v40c0,4.4-3.6,8-8,8h-84
	c-15.4,0-28,12.6-28,28s12.6,28,28,28h92v192c0,8.8-7.2,16-16,16s-16-7.2-16-16V312h-16v160c0,8.8-7.2,16-16,16s-16-7.2-16-16V312
	h-16v160c0,17.6,14.4,32,32,32c9.6,0,18.1-4.3,24-11.1c5.9,6.7,14.4,11.1,24,11.1c17.6,0,32-14.4,32-32V277.6
	c23.1-6.9,40-28.3,40-53.6v-32C504,157.8,480,129.2,448,121.9L448,121.9z M408,120c-26.5,0-48-21.5-48-48s21.5-48,48-48
	s48,21.5,48,48S434.5,120,408,120z M448,264h-92c-6.6,0-12-5.4-12-12s5.4-12,12-12h84c10.4,0,19.2-6.7,22.5-16H488
	C488,246.1,470.1,264,448,264z"/>
<path class="st1" d="M256,408h16v16h-16V408z"/>
<path class="st1" d="M288,408h16v16h-16V408z"/>
<path class="st1" d="M320,408h16v16h-16V408z"/>
<path class="st1" d="M248,40h16v16h-16V40z"/>
<path class="st1" d="M216,40h16v16h-16V40z"/>
<path class="st1" d="M184,40h16v16h-16V40z"/>
</svg>
