<?xml version="1.0" encoding="utf-8"?>
<!-- Generator: Adobe Illustrator 21.1.0, SVG Export Plug-In . SVG Version: 6.00 Build 0)  -->
<svg version="1.1" id="Capa_1" xmlns="http://www.w3.org/2000/svg" xmlns:xlink="http://www.w3.org/1999/xlink" x="0px" y="0px"
	 viewBox="0 0 444.5 444.5" style="enable-background:new 0 0 444.5 444.5;" xml:space="preserve">
<g>
	<path d="M222.2,213.1l138.7,138.7c7,7,15.7,10.6,25.8,10.6c10.3,0,18.9-3.5,25.9-10.6l21.4-21.4c7-7,10.6-15.7,10.6-25.8
		c0-10.1-3.5-18.8-10.6-25.8L248.1,92.7c-7-7-15.7-10.6-25.8-10.6s-18.8,3.5-25.8,10.6L10.6,278.8c-7,7-10.6,15.7-10.6,25.8
		c0,10.1,3.5,18.8,10.6,25.8L32,351.8c7,7,15.6,10.6,25.7,10.6s18.7-3.5,26-10.6L222.2,213.1z"/>
</g>
</svg>
