<?xml version="1.0" encoding="utf-8"?>
<!-- Generator: Adobe Illustrator 21.1.0, SVG Export Plug-In . SVG Version: 6.00 Build 0)  -->
<svg version="1.1" id="Layer_1" xmlns="http://www.w3.org/2000/svg" xmlns:xlink="http://www.w3.org/1999/xlink" x="0px" y="0px"
	 viewBox="0 0 115.2 115" style="enable-background:new 0 0 115.2 115;" xml:space="preserve">
<style type="text/css">
	.st0{fill:#4A484C;}
	.st1{fill:#625EA7;}
	.st2{fill:#222026;}
</style>
<g>
	<path class="st0" d="M63.3,0.1l-0.6,7.5L61,7.5l0.4-5.4l-0.8,0.5l-0.7-1.4L61.9,0L63.3,0.1z"/>
	<path class="st0" d="M65.8,4.1c0.1-0.6,0.3-1.1,0.6-1.5c0.3-0.4,0.6-0.8,0.9-1c0.4-0.3,0.7-0.4,1.2-0.5c0.4-0.1,0.9-0.1,1.3,0
		c0.4,0.1,0.8,0.3,1.2,0.5c0.4,0.3,0.6,0.6,0.9,1c0.2,0.4,0.4,0.8,0.4,1.3c0.1,0.5,0,1-0.1,1.6C72,6.1,71.8,6.6,71.6,7
		c-0.3,0.4-0.6,0.8-0.9,1s-0.7,0.4-1.2,0.5c-0.4,0.1-0.9,0.1-1.3,0c-0.4-0.1-0.8-0.3-1.2-0.5c-0.4-0.3-0.6-0.6-0.9-1
		c-0.2-0.4-0.4-0.8-0.4-1.3C65.7,5.3,65.7,4.7,65.8,4.1z M70.5,5.1c0.1-0.4,0.1-0.7,0.1-0.9c0-0.3-0.1-0.5-0.2-0.7
		C70.3,3.3,70.1,3.1,70,3c-0.2-0.1-0.3-0.2-0.5-0.3c-0.2,0-0.4,0-0.6,0c-0.2,0.1-0.4,0.2-0.6,0.3S68,3.4,67.8,3.6
		c-0.1,0.2-0.2,0.5-0.3,0.9c-0.1,0.4-0.1,0.7-0.1,1c0,0.3,0.1,0.5,0.2,0.7c0.1,0.2,0.2,0.4,0.4,0.5c0.2,0.1,0.3,0.2,0.5,0.2
		s0.4,0,0.6,0s0.4-0.1,0.6-0.3C69.8,6.5,70,6.3,70.1,6C70.3,5.8,70.4,5.5,70.5,5.1z"/>
	<path class="st0" d="M74.6,6.3c0.2-0.6,0.5-1,0.8-1.4c0.3-0.4,0.7-0.7,1.1-0.9c0.4-0.2,0.8-0.3,1.2-0.3c0.4,0,0.9,0.1,1.3,0.2
		s0.8,0.4,1.1,0.7c0.3,0.3,0.5,0.7,0.7,1.1C81,6.1,81,6.6,81,7.1c0,0.5-0.1,1-0.4,1.6s-0.5,1-0.8,1.4c-0.3,0.4-0.7,0.7-1.1,0.9
		c-0.4,0.2-0.8,0.3-1.2,0.3c-0.4,0-0.9-0.1-1.3-0.2c-0.4-0.2-0.8-0.4-1.1-0.7s-0.5-0.7-0.7-1.1c-0.1-0.4-0.2-0.9-0.2-1.4
		S74.4,6.8,74.6,6.3z M79,8c0.1-0.3,0.2-0.6,0.2-0.9c0-0.3,0-0.5-0.1-0.7c-0.1-0.2-0.2-0.4-0.3-0.6c-0.1-0.2-0.3-0.3-0.5-0.3
		c-0.2-0.1-0.4-0.1-0.6-0.1s-0.4,0.1-0.6,0.2c-0.2,0.1-0.4,0.3-0.6,0.5c-0.2,0.2-0.3,0.5-0.5,0.8C76.1,7.2,76,7.6,76,7.8
		s0,0.5,0.1,0.8c0.1,0.2,0.2,0.4,0.3,0.6c0.1,0.2,0.3,0.3,0.5,0.3c0.2,0.1,0.4,0.1,0.6,0.1c0.2,0,0.4-0.1,0.6-0.2s0.4-0.3,0.6-0.5
		C78.7,8.6,78.9,8.4,79,8z"/>
	<path class="st0" d="M82.6,14.1l-1.2-0.7l7.9-4l1.2,0.7L82.6,14.1z M84.1,8c0.1-0.2,0.3-0.4,0.5-0.5c0.2-0.1,0.4-0.2,0.6-0.3
		c0.2,0,0.4-0.1,0.6,0c0.2,0,0.4,0.1,0.6,0.2c0.2,0.1,0.4,0.3,0.5,0.5s0.2,0.4,0.3,0.6c0,0.2,0.1,0.4,0,0.6c0,0.2-0.1,0.4-0.2,0.6
		c-0.1,0.2-0.3,0.4-0.5,0.5c-0.2,0.1-0.4,0.2-0.6,0.3s-0.4,0.1-0.6,0c-0.2,0-0.4-0.1-0.6-0.2c-0.2-0.1-0.4-0.3-0.5-0.5
		c-0.1-0.2-0.2-0.4-0.3-0.6c0-0.2-0.1-0.4,0-0.6C83.9,8.4,84,8.2,84.1,8z M87.9,15.4c-0.1,0.2-0.3,0.4-0.5,0.5
		c-0.2,0.1-0.4,0.2-0.6,0.3c-0.2,0-0.4,0.1-0.6,0c-0.2,0-0.4-0.1-0.6-0.2s-0.4-0.3-0.5-0.5s-0.2-0.4-0.3-0.6s-0.1-0.4,0-0.6
		c0-0.2,0.1-0.4,0.2-0.6s0.3-0.4,0.5-0.5c0.2-0.1,0.4-0.2,0.6-0.3c0.2,0,0.4-0.1,0.6,0c0.2,0,0.4,0.1,0.6,0.2
		c0.2,0.1,0.4,0.3,0.5,0.5s0.2,0.4,0.3,0.6s0.1,0.4,0,0.6C88.1,15,88,15.2,87.9,15.4z M86.1,9.2c0.1-0.2,0.1-0.3,0.1-0.5
		c0-0.2-0.1-0.3-0.3-0.4s-0.3-0.1-0.5-0.1c-0.2,0-0.3,0.1-0.4,0.3S84.8,8.8,84.9,9s0.1,0.3,0.3,0.4c0.2,0.1,0.3,0.1,0.5,0.1
		C85.8,9.5,86,9.4,86.1,9.2z M85.9,14.2c-0.1,0.2-0.1,0.3-0.1,0.5c0,0.2,0.1,0.3,0.3,0.4s0.3,0.1,0.5,0.1c0.2,0,0.3-0.1,0.4-0.3
		c0.1-0.2,0.1-0.3,0.1-0.5S87,14.1,86.8,14s-0.3-0.1-0.5-0.1C86.2,14,86,14.1,85.9,14.2z"/>
	<path class="st0" d="M97.2,15.6l3.4,3.5l-1.2,1.2L97.3,18l-4.2,4.1l-1.2-1.2L97.2,15.6z"/>
	<path class="st0" d="M98.3,25.9l-1.4,0.5l-1.1-1.5l7.7-2.3l1.1,1.5l-4.5,6.7L99,29.3l0.9-1.2L98.3,25.9z M100.8,26.8l1.5-2.2
		l-2.5,0.8L100.8,26.8z"/>
	<path class="st0" d="M109,31.5c0.2,0.3,0.3,0.7,0.3,1.1c0,0.4,0,0.7-0.1,1c-0.1,0.3-0.3,0.6-0.5,0.9c-0.2,0.3-0.5,0.5-0.8,0.6
		s-0.7,0.3-1,0.3c-0.3,0-0.7,0-1-0.1c-0.3-0.1-0.6-0.3-0.9-0.5c-0.3-0.2-0.5-0.5-0.7-0.9l-0.5-1.1l-2.1,1.1l-0.8-1.5l6.7-3.4
		L109,31.5z M105.9,33c0.1,0.2,0.3,0.4,0.6,0.5c0.2,0.1,0.5,0.1,0.7,0c0.2-0.1,0.4-0.3,0.4-0.5c0.1-0.2,0.1-0.5-0.1-0.7l-0.5-1.1
		l-1.6,0.8L105.9,33z"/>
	<path class="st0" d="M106.1,40l-1.5,0l-0.6-1.7l8,0.2l0.6,1.7l-6.3,4.9l-0.6-1.7l1.2-0.9L106.1,40z M108.2,41.6l2.1-1.6l-2.7,0
		L108.2,41.6z"/>
	<path class="st0" d="M115,52l-7.5,1.1l-0.3-1.7l3-0.4l-0.4-2.8l-3,0.4l-0.3-1.7l7.5-1.1l0.3,1.7l-2.8,0.4l0.4,2.8l2.8-0.4L115,52z"
		/>
	<path class="st0" d="M107.6,59l0-1.7l5.9,0.1l0-2.2l1.7,0l-0.1,6.1l-1.7,0l0-2.2L107.6,59z"/>
	<path class="st0" d="M114.5,66.2l-4.4-0.8l3.9,3.8l-0.3,1.5l-7.4-1.3l0.3-1.7l4.4,0.8l-3.9-3.8l0.3-1.5l7.4,1.3L114.5,66.2z"/>
	<path class="st0" d="M110.8,79.6l-7.1-2.6l0.6-1.6l2.4,0.9l0.3-0.8l-1.9-2.2l0.7-1.8l2.2,2.6c0.2-0.2,0.5-0.4,0.7-0.5
		c0.2-0.1,0.5-0.2,0.8-0.2c0.3,0,0.7,0,1.1,0.2c0.3,0.1,0.6,0.3,0.8,0.5c0.2,0.2,0.4,0.5,0.5,0.8s0.2,0.6,0.2,1
		c0,0.3-0.1,0.7-0.2,1.1L110.8,79.6z M108.3,76.8l1.6,0.6l0.4-1.2c0.1-0.3,0.1-0.5,0-0.7c-0.1-0.2-0.3-0.4-0.5-0.4
		c-0.2-0.1-0.4-0.1-0.7,0s-0.4,0.3-0.5,0.6L108.3,76.8z"/>
	<path class="st0" d="M101.5,89c-0.2,0.1-0.4,0.2-0.7,0.3c-0.2,0-0.4,0.1-0.7,0s-0.5-0.1-0.8-0.3c-0.3-0.2-0.5-0.4-0.6-0.6
		c-0.2-0.2-0.3-0.5-0.3-0.8c0-0.3,0-0.6,0-0.9c0.1-0.3,0.2-0.6,0.4-0.9l1.9-2.8l6.3,4.2l-1.8,2.7c-0.2,0.3-0.4,0.5-0.7,0.7
		c-0.3,0.2-0.5,0.3-0.8,0.4c-0.3,0.1-0.5,0.1-0.8,0c-0.3,0-0.5-0.1-0.8-0.3c-0.2-0.1-0.4-0.3-0.5-0.5c-0.1-0.2-0.2-0.4-0.2-0.5
		C101.5,89.4,101.5,89.2,101.5,89z M100.1,86.4c-0.2,0.2-0.2,0.5-0.2,0.7s0.2,0.4,0.4,0.6c0.2,0.1,0.4,0.2,0.7,0.1
		c0.3-0.1,0.5-0.2,0.6-0.4l0.8-1.2l-1.5-1L100.1,86.4z M103.6,86.9l-0.7,1.1c-0.1,0.2-0.2,0.4-0.1,0.6c0,0.2,0.1,0.4,0.3,0.5
		c0.2,0.1,0.4,0.2,0.6,0.1c0.2,0,0.4-0.2,0.5-0.4l0.7-1.1L103.6,86.9z"/>
	<path class="st0" d="M94,97.2c-0.4-0.4-0.7-0.8-0.9-1.3s-0.3-0.9-0.3-1.4c0-0.5,0.1-1,0.2-1.4c0.2-0.5,0.4-0.9,0.8-1.2
		c0.4-0.4,0.8-0.7,1.2-0.8c0.5-0.2,0.9-0.3,1.4-0.3s1,0.1,1.4,0.3c0.5,0.2,0.9,0.5,1.3,0.8c0.4,0.4,0.7,0.8,0.9,1.3
		c0.2,0.5,0.3,0.9,0.3,1.4c0,0.5-0.1,1-0.2,1.4c-0.2,0.5-0.4,0.9-0.8,1.2c-0.4,0.4-0.8,0.7-1.2,0.8c-0.5,0.2-0.9,0.3-1.4,0.3
		c-0.5,0-1-0.1-1.4-0.3C94.8,97.8,94.4,97.6,94,97.2z M95.2,95.9c0.2,0.2,0.5,0.4,0.7,0.5c0.3,0.1,0.5,0.2,0.8,0.2
		c0.3,0,0.5,0,0.8-0.1c0.2-0.1,0.5-0.2,0.6-0.4s0.3-0.4,0.4-0.7c0.1-0.2,0.1-0.5,0.1-0.8c0-0.3-0.1-0.5-0.2-0.8
		c-0.1-0.3-0.3-0.5-0.5-0.7c-0.2-0.2-0.5-0.4-0.7-0.5c-0.3-0.1-0.5-0.2-0.8-0.2c-0.3,0-0.5,0-0.8,0.1c-0.2,0.1-0.5,0.2-0.6,0.4
		c-0.2,0.2-0.3,0.4-0.4,0.7s-0.1,0.5-0.1,0.8s0.1,0.5,0.2,0.8S95,95.7,95.2,95.9z"/>
	<path class="st0" d="M93.1,100c0.2,0.3,0.3,0.5,0.4,0.8c0.1,0.3,0.1,0.6,0,0.9c-0.1,0.3-0.2,0.6-0.4,0.9c-0.2,0.3-0.5,0.6-0.8,0.8
		c-0.3,0.2-0.7,0.4-1,0.5c-0.3,0.1-0.6,0.1-0.9,0.1s-0.6-0.1-0.8-0.2c-0.2-0.1-0.5-0.3-0.6-0.5c-0.2-0.2-0.3-0.4-0.3-0.7
		s0-0.4,0-0.6c0-0.2,0.1-0.4,0.2-0.6c-0.2,0-0.5,0.1-0.7,0c-0.2,0-0.4-0.1-0.7-0.2c-0.2-0.1-0.5-0.3-0.7-0.6
		c-0.2-0.2-0.3-0.5-0.3-0.8c-0.1-0.3-0.1-0.6,0-0.9c0.1-0.3,0.2-0.6,0.4-0.9c0.2-0.3,0.5-0.6,0.8-0.8c0.4-0.3,0.7-0.5,1.1-0.6
		c0.4-0.1,0.7-0.2,1-0.1c0.3,0,0.6,0.1,0.9,0.2s0.5,0.3,0.8,0.6l-1.3,1.1c-0.2-0.2-0.4-0.2-0.7-0.3c-0.3,0-0.5,0.1-0.8,0.2
		c-0.3,0.2-0.4,0.4-0.5,0.7c0,0.2,0,0.4,0.2,0.6c0.1,0.2,0.3,0.3,0.5,0.3c0.2,0,0.5-0.1,0.8-0.3l0.6-0.5l0.9,1.1l-0.6,0.4
		c-0.3,0.2-0.4,0.4-0.5,0.6s0,0.4,0.1,0.5s0.3,0.3,0.5,0.3c0.2,0,0.5-0.1,0.7-0.2c0.2-0.2,0.3-0.4,0.4-0.6s0-0.4-0.1-0.7L93.1,100z"
		/>
	<path class="st0" d="M81.3,106c-0.2,0-0.5,0-0.7-0.1c-0.2-0.1-0.4-0.2-0.6-0.3c-0.2-0.1-0.4-0.4-0.6-0.7c-0.1-0.3-0.2-0.5-0.2-0.8
		c0-0.3,0-0.6,0.1-0.9c0.1-0.3,0.3-0.5,0.5-0.8s0.5-0.5,0.8-0.6l3-1.6l3.6,6.7l-2.9,1.5c-0.3,0.2-0.6,0.3-0.9,0.3
		c-0.3,0-0.6,0-0.9-0.1s-0.5-0.2-0.7-0.4s-0.4-0.4-0.5-0.6c-0.1-0.2-0.2-0.4-0.2-0.6c0-0.2,0-0.4,0.1-0.5
		C81.2,106.3,81.2,106.1,81.3,106z M81.4,103c-0.2,0.1-0.4,0.3-0.5,0.6c-0.1,0.2-0.1,0.5,0.1,0.7c0.1,0.2,0.3,0.4,0.5,0.4
		c0.2,0.1,0.5,0,0.7-0.1l1.3-0.7l-0.8-1.6L81.4,103z M84.2,105.1l-1.2,0.6c-0.2,0.1-0.4,0.3-0.4,0.5c-0.1,0.2-0.1,0.4,0,0.6
		s0.3,0.3,0.5,0.4c0.2,0.1,0.4,0,0.6-0.1l1.2-0.6L84.2,105.1z"/>
	<path class="st0" d="M76,112c-0.4,0.1-0.7,0.2-1.1,0.2c-0.4,0-0.7-0.1-1-0.2s-0.6-0.3-0.8-0.6c-0.2-0.3-0.4-0.5-0.5-0.9
		c-0.1-0.3-0.2-0.7-0.1-1c0-0.3,0.1-0.7,0.3-1c0.2-0.3,0.4-0.6,0.6-0.8s0.6-0.4,1-0.5l1.1-0.4l-0.8-2.3l1.6-0.6l2.5,7.2L76,112z
		 M74.9,108.7c-0.3,0.1-0.4,0.2-0.6,0.5c-0.1,0.2-0.1,0.5-0.1,0.7c0.1,0.2,0.2,0.4,0.5,0.5c0.2,0.1,0.5,0.1,0.7,0l1.1-0.4l-0.6-1.7
		L74.9,108.7z"/>
	<path class="st0" d="M68,107.8l0.2-1.5L70,106l-1.3,7.9l-1.8,0.3l-4-7l1.8-0.3l0.7,1.3L68,107.8z M66.1,109.7l1.3,2.3l0.4-2.6
		L66.1,109.7z"/>
	<path class="st0" d="M58.4,107.4l1.7-0.1l0.2,5.9l2.2-0.1l0.1,1.7l-6.1,0.2l-0.1-1.7l2.2-0.1L58.4,107.4z"/>
	<path class="st0" d="M53,108.7l0.6-1.4l1.8,0.2l-3.5,7.2l-1.8-0.2l-1.8-7.8l1.8,0.2l0.3,1.5L53,108.7z M50.7,109.9l0.5,2.6l1.1-2.4
		L50.7,109.9z"/>
	<path class="st0" d="M34,110l2.7-7.1l1.6,0.6l-2.1,5.5l2.7,1.1l2.1-5.5l1.6,0.6l-2.7,7.1L34,110z"/>
	<path class="st0" d="M26.4,101.3c0.3-0.5,0.6-0.8,1-1.1c0.4-0.3,0.8-0.5,1.3-0.6s0.9-0.1,1.4-0.1c0.5,0.1,1,0.2,1.4,0.5
		s0.8,0.6,1.1,1c0.3,0.4,0.5,0.8,0.6,1.3c0.1,0.5,0.1,1,0,1.5s-0.3,1-0.5,1.4c-0.3,0.5-0.6,0.8-1,1.1c-0.4,0.3-0.9,0.5-1.3,0.6
		s-0.9,0.1-1.4,0.1s-0.9-0.2-1.4-0.5c-0.4-0.3-0.8-0.6-1.1-1c-0.3-0.4-0.5-0.8-0.6-1.3c-0.1-0.5-0.1-1,0-1.5
		C25.9,102.3,26.1,101.8,26.4,101.3z M27.9,102.3c-0.2,0.3-0.3,0.5-0.3,0.8s0,0.5,0,0.8s0.2,0.5,0.3,0.7c0.1,0.2,0.3,0.4,0.6,0.5
		c0.2,0.1,0.5,0.2,0.7,0.3c0.3,0,0.5,0,0.8-0.1c0.3-0.1,0.5-0.2,0.7-0.4s0.4-0.4,0.6-0.7c0.2-0.3,0.3-0.5,0.3-0.8s0-0.5,0-0.8
		s-0.2-0.5-0.3-0.7c-0.1-0.2-0.3-0.4-0.6-0.5c-0.2-0.1-0.5-0.2-0.7-0.3c-0.3,0-0.5,0-0.8,0.1c-0.3,0.1-0.5,0.2-0.7,0.4
		S28,102,27.9,102.3z"/>
	<path class="st0" d="M17,98.3l5-5.6l1.3,1.2l-3.9,4.4l1.5,1.4l2.6-2.5c0.5-0.5,1.1-0.8,1.7-0.8c0.6,0,1.1,0.1,1.6,0.6
		c0.1,0.1,0.1,0.1,0.2,0.2c0.1,0.1,0.1,0.1,0.2,0.2c0.1,0.1,0.1,0.1,0.1,0.2l-1,1.1l-0.2-0.2c-0.2-0.2-0.4-0.3-0.7-0.2
		c-0.3,0-0.5,0.2-0.8,0.4l-3.6,3.4L17,98.3z"/>
	<path class="st0" d="M10.4,90.5l5.9-4.7l1.1,1.4l-2.4,1.9l1.8,2.3l2.4-1.9l1.1,1.4l-5.9,4.7l-1.1-1.4l2.3-1.8l-1.8-2.3l-2.3,1.8
		L10.4,90.5z"/>
	<path class="st0" d="M8.3,79.2c0.5-0.3,1-0.4,1.5-0.4c0.5,0,1,0,1.4,0.1c0.5,0.1,0.9,0.4,1.3,0.7c0.4,0.3,0.7,0.7,0.9,1.1
		c0.2,0.5,0.4,0.9,0.4,1.4c0,0.5,0,1-0.2,1.4c-0.2,0.5-0.4,0.9-0.7,1.3c-0.3,0.4-0.7,0.7-1.2,1c-0.5,0.2-1,0.4-1.5,0.4
		c-0.5,0-1,0-1.5-0.1C8.4,86,8,85.7,7.6,85.4c-0.4-0.3-0.7-0.7-0.9-1.1c-0.2-0.5-0.4-0.9-0.4-1.4s0-1,0.2-1.4
		c0.2-0.5,0.4-0.9,0.7-1.3C7.4,79.8,7.8,79.5,8.3,79.2z M9.1,80.8c-0.3,0.1-0.5,0.3-0.7,0.5C8.2,81.5,8.1,81.7,8,82
		c-0.1,0.2-0.1,0.5-0.1,0.8c0,0.3,0.1,0.5,0.2,0.8c0.1,0.2,0.3,0.4,0.5,0.6c0.2,0.2,0.4,0.3,0.7,0.3c0.3,0.1,0.5,0.1,0.8,0.1
		c0.3,0,0.6-0.1,0.8-0.3c0.3-0.1,0.5-0.3,0.7-0.5c0.2-0.2,0.3-0.4,0.4-0.7s0.1-0.5,0.1-0.8s-0.1-0.5-0.2-0.8
		c-0.1-0.2-0.3-0.4-0.5-0.6c-0.2-0.2-0.4-0.3-0.7-0.3s-0.5-0.1-0.8-0.1C9.7,80.5,9.4,80.6,9.1,80.8z"/>
	<path class="st0" d="M2,74.9c0.1,0.2,0.1,0.5,0.1,0.7c0,0.2-0.1,0.4-0.2,0.6c-0.1,0.2-0.2,0.4-0.4,0.5C1.4,76.8,1.2,76.9,1,77
		l-0.3-1.1c0.2-0.1,0.3-0.2,0.4-0.3c0.1-0.1,0.1-0.3,0-0.4C1,75,1,74.9,0.8,74.8s-0.3-0.1-0.5-0.1L0,73.7c0.4-0.1,0.9,0,1.2,0.2
		S1.9,74.4,2,74.9z M3.1,76l4.3-1.3l-5.2-1.6l-0.5-1.5L9,69.4L9.5,71l-4.3,1.3l5.2,1.6l0.5,1.5l-7.2,2.3L3.1,76z"/>
	<path class="st0" d="M6,59.6c0-0.5-0.2-0.9-0.4-1.1C5.4,58.2,5.1,58,4.8,58l0-1.8c0.4,0.1,0.7,0.2,1.1,0.4c0.3,0.2,0.6,0.4,0.9,0.7
		c0.3,0.3,0.5,0.6,0.6,1s0.3,0.8,0.3,1.3c0,0.5-0.1,1-0.2,1.5c-0.2,0.5-0.4,0.9-0.8,1.2S6,62.8,5.6,63c-0.5,0.2-1,0.3-1.5,0.4
		c-0.5,0-1-0.1-1.5-0.2c-0.5-0.2-0.9-0.4-1.3-0.7c-0.4-0.3-0.7-0.7-0.9-1.1c-0.2-0.4-0.3-0.9-0.4-1.4c0-0.4,0-0.9,0.2-1.3
		s0.3-0.7,0.5-1s0.5-0.6,0.8-0.8c0.3-0.2,0.7-0.4,1-0.5l0.2,1.8c-0.1,0.1-0.3,0.1-0.4,0.2c-0.1,0.1-0.2,0.2-0.3,0.4
		c-0.1,0.1-0.2,0.3-0.2,0.5c-0.1,0.2-0.1,0.4-0.1,0.6c0,0.3,0.1,0.5,0.2,0.8C2,60.8,2.2,61,2.4,61.2c0.2,0.2,0.4,0.3,0.7,0.4
		c0.3,0.1,0.6,0.1,0.9,0.1c0.3,0,0.6-0.1,0.9-0.2c0.3-0.1,0.5-0.3,0.7-0.5s0.3-0.4,0.4-0.6C6,60.1,6.1,59.9,6,59.6z"/>
	<path class="st0" d="M8.1,50.7l-0.2,1.7L2,51.7l-0.3,2.1l-1.7-0.2l0.7-6l1.7,0.2L2.2,50L8.1,50.7z"/>
	<path class="st0" d="M6.9,39c0.5,0.1,1,0.4,1.4,0.7c0.4,0.3,0.7,0.7,1,1.1c0.2,0.4,0.4,0.9,0.5,1.4c0.1,0.5,0,1-0.1,1.5
		c-0.1,0.5-0.4,0.9-0.7,1.3c-0.3,0.4-0.7,0.7-1.1,0.9s-0.9,0.4-1.4,0.4s-1,0-1.5-0.1c-0.5-0.1-1-0.4-1.4-0.7s-0.7-0.7-1-1.1
		c-0.2-0.4-0.4-0.9-0.5-1.4c-0.1-0.5,0-1,0.1-1.5c0.1-0.5,0.4-0.9,0.7-1.3s0.7-0.7,1.1-0.9c0.4-0.2,0.9-0.4,1.4-0.4
		C5.9,38.8,6.4,38.8,6.9,39z M6.5,40.7c-0.3-0.1-0.6-0.1-0.9-0.1c-0.3,0-0.5,0.1-0.8,0.2c-0.2,0.1-0.4,0.3-0.6,0.5S3.9,41.7,3.8,42
		c-0.1,0.3-0.1,0.5-0.1,0.8c0,0.3,0.1,0.5,0.3,0.7c0.1,0.2,0.3,0.4,0.5,0.6c0.2,0.2,0.5,0.3,0.8,0.4c0.3,0.1,0.6,0.1,0.9,0.1
		c0.3,0,0.5-0.1,0.8-0.2c0.2-0.1,0.4-0.3,0.6-0.5c0.2-0.2,0.3-0.4,0.4-0.7c0.1-0.3,0.1-0.5,0.1-0.8c0-0.3-0.1-0.5-0.3-0.7
		c-0.1-0.2-0.3-0.4-0.5-0.6C7,40.9,6.8,40.7,6.5,40.7z"/>
	<path class="st0" d="M5.4,33.1l4,2l-2.7-4.7L7.5,29l6.8,3.4l-0.8,1.6l-4-2l2.7,4.7L11.4,38l-6.8-3.4L5.4,33.1z"/>
	<path class="st0" d="M13.4,20.4l1-1.2l6,4.6l-1.1,1.4l-3-2.3l1.9,3.7l-0.7,0.9l-4.1-0.9l3,2.3l-1.1,1.4l-6-4.6l1-1.2l5.7,1.3
		L13.4,20.4z"/>
	<path class="st0" d="M25,14.5c0.4,0.4,0.6,0.9,0.8,1.3c0.2,0.5,0.2,1,0.2,1.4c0,0.5-0.1,0.9-0.4,1.4c-0.2,0.4-0.5,0.8-0.9,1.2
		c-0.4,0.3-0.8,0.6-1.3,0.7c-0.5,0.2-0.9,0.2-1.4,0.2c-0.5,0-0.9-0.2-1.4-0.4c-0.5-0.2-0.9-0.5-1.2-0.9c-0.4-0.4-0.6-0.8-0.8-1.3
		s-0.2-1-0.2-1.4c0-0.5,0.1-0.9,0.4-1.4c0.2-0.4,0.5-0.8,0.9-1.2c0.4-0.3,0.8-0.6,1.3-0.7c0.5-0.2,0.9-0.2,1.4-0.2
		c0.5,0,1,0.2,1.4,0.4S24.6,14.1,25,14.5z M23.7,15.6c-0.2-0.2-0.4-0.4-0.7-0.5c-0.3-0.1-0.5-0.2-0.8-0.2c-0.3,0-0.5,0-0.8,0.1
		c-0.3,0.1-0.5,0.2-0.7,0.4s-0.4,0.4-0.5,0.6c-0.1,0.2-0.2,0.5-0.2,0.8s0,0.5,0.1,0.8s0.2,0.5,0.5,0.8c0.2,0.2,0.4,0.4,0.7,0.5
		s0.5,0.2,0.8,0.2c0.3,0,0.5,0,0.8-0.1c0.3-0.1,0.5-0.2,0.7-0.4c0.2-0.2,0.4-0.4,0.5-0.6c0.1-0.2,0.2-0.5,0.2-0.8s0-0.5-0.1-0.8
		C24,16.1,23.9,15.9,23.7,15.6z"/>
	<path class="st0" d="M31.3,13c0.4-0.2,0.7-0.5,0.8-0.9s0.1-0.7,0.1-1l1.6-0.8c0.1,0.4,0.2,0.7,0.2,1.1c0,0.4-0.1,0.8-0.2,1.1
		c-0.1,0.4-0.3,0.7-0.6,1s-0.6,0.6-1,0.8c-0.4,0.3-0.9,0.4-1.4,0.5c-0.5,0.1-1,0-1.4-0.1c-0.5-0.1-0.9-0.3-1.3-0.6
		c-0.4-0.3-0.7-0.7-1-1.1c-0.3-0.5-0.4-0.9-0.5-1.4c-0.1-0.5-0.1-1,0.1-1.5c0.1-0.5,0.3-0.9,0.6-1.3c0.3-0.4,0.7-0.7,1.1-1
		c0.4-0.2,0.8-0.4,1.2-0.4c0.4-0.1,0.8-0.1,1.2,0s0.7,0.2,1.1,0.4c0.3,0.2,0.6,0.4,0.9,0.7l-1.5,1c-0.1-0.1-0.3-0.2-0.4-0.3
		C30.5,9.1,30.4,9,30.2,9c-0.2,0-0.3,0-0.5,0s-0.4,0.1-0.6,0.2c-0.2,0.1-0.4,0.3-0.6,0.5c-0.2,0.2-0.3,0.5-0.3,0.7
		c-0.1,0.3-0.1,0.5,0,0.8c0,0.3,0.1,0.6,0.3,0.8c0.2,0.3,0.4,0.5,0.6,0.7c0.2,0.2,0.5,0.3,0.7,0.4c0.3,0.1,0.5,0.1,0.8,0.1
		C30.8,13.2,31.1,13.1,31.3,13z"/>
	<path class="st0" d="M40.1,10.5l-1.6,0.6l-2.2-5.5l-2,0.8l-0.6-1.6l5.6-2.2L40,4.3l-2,0.8L40.1,10.5z"/>
	<path class="st0" d="M44.1,1.4l0.9,4.4l2.1-5l1.5-0.3l1.6,7.4l-1.7,0.4l-0.9-4.4l-2.1,5L44,9.2l-1.6-7.4L44.1,1.4z"/>
</g>
<g>
	<path class="st1" d="M57.6,97.4c-22.1,0-40-17.9-40-40s17.9-40,40-40s40,17.9,40,40S79.7,97.4,57.6,97.4z M57.6,30.7
		c-14.7,0-26.7,12-26.7,26.7s12,26.7,26.7,26.7s26.7-12,26.7-26.7S72.3,30.7,57.6,30.7z"/>
	<path class="st2" d="M57.6,86.7c-16.2,0-29.3-13.2-29.3-29.3s13.2-29.3,29.3-29.3S87,41.2,87,57.4S73.8,86.7,57.6,86.7z M57.6,33.4
		c-13.2,0-24,10.8-24,24s10.8,24,24,24s24-10.8,24-24S70.9,33.4,57.6,33.4z"/>
	<path class="st2" d="M57.6,54.7c-1.5,0-2.7-1.2-2.7-2.7v-2.7h2.7c1.5,0,2.7,1.2,2.7,2.7h5.3c0-3.5-2.2-6.4-5.3-7.5v-5.8H55v5.3
		h-5.3v8c0,4.4,3.6,8,8,8c1.5,0,2.7,1.2,2.7,2.7v2.7h-2.7c-1.5,0-2.7-1.2-2.7-2.7h-5.3c0,3.5,2.2,6.4,5.3,7.5v5.8h5.3v-5.3h5.3v-8
		C65.6,58.3,62,54.7,57.6,54.7z"/>
	<path class="st2" d="M71,54.7h5.3v5.3H71V54.7z"/>
	<path class="st2" d="M39,54.7h5.3v5.3H39V54.7z"/>
</g>
</svg>
